<svg width="36" height="36" viewBox="0 0 36 36" fill="none" xmlns="http://www.w3.org/2000/svg">
<path fill-rule="evenodd" clip-rule="evenodd" d="M22.0975 9.00001C20.7946 9 19.9548 9.15522 18.992 9.62647C18.6356 9.80094 18.3011 10.0111 17.9906 10.2562C17.692 10.0248 17.3709 9.82433 17.0292 9.65532C16.0478 9.1699 15.1649 9 13.9087 9C10.5444 9 8.09961 11.7875 8.09961 15.4079C8.09961 18.142 9.62406 20.7831 12.4636 23.3369C13.954 24.6774 15.857 26.004 17.2199 26.7097L17.9996 27.1135L18.7794 26.7097C20.1422 26.004 22.0452 24.6774 23.5357 23.3369C26.3752 20.7831 27.8996 18.142 27.8996 15.4079C27.8996 11.8259 25.4318 9.01382 22.0975 9.00001ZM26.0997 15.4079C26.0997 17.5499 24.8272 19.7544 22.332 21.9986C20.9716 23.2221 19.2227 24.4449 17.9997 25.0864C16.7766 24.4449 15.0277 23.2221 13.6673 21.9986C11.1721 19.7544 9.89965 17.5499 9.89965 15.4079C9.89965 12.733 11.5949 10.8 13.9087 10.8C14.9075 10.8 15.523 10.9185 16.2313 11.2688C16.6497 11.4757 17.0194 11.749 17.3395 12.0904L18.0018 12.7969L18.658 12.0848C18.9852 11.7297 19.3605 11.4502 19.7834 11.2432C20.4709 10.9067 21.048 10.8 22.0938 10.8C24.379 10.8095 26.0997 12.7701 26.0997 15.4079Z" fill="black"/>
</svg>
