<svg width="36" height="36" viewBox="0 0 36 36" fill="none" xmlns="http://www.w3.org/2000/svg">
<path fill-rule="evenodd" clip-rule="evenodd" d="M17.9996 27.8977C12.532 27.8977 8.09961 23.4653 8.09961 17.9977C8.09961 12.53 12.532 8.09766 17.9996 8.09766C23.4672 8.09766 27.8996 12.53 27.8996 17.9977C27.8996 23.4653 23.4672 27.8977 17.9996 27.8977ZM17.9996 26.0977C22.4731 26.0977 26.0996 22.4712 26.0996 17.9977C26.0996 13.5241 22.4731 9.89766 17.9996 9.89766C13.5261 9.89766 9.89961 13.5241 9.89961 17.9977C9.89961 22.4712 13.5261 26.0977 17.9996 26.0977ZM20.9632 14.6613L16.1996 19.4249L14.136 17.3613L12.8632 18.6341L16.1996 21.9705L22.236 15.9341L20.9632 14.6613Z" fill="#27AE60"/>
</svg>
